{
	"asset":{
		"generator":"Khronos glTF Blender I/O v4.4.55",
		"version":"2.0"
	},
	"scene":0,
	"scenes":[
		{
			"name":"Scene",
			"nodes":[
				0
			]
		}
	],
	"nodes":[
		{
			"mesh":0,
			"name":"Cube",
			"translation":[
				0,
				1,
				0
			]
		}
	],
	"materials":[
		{
			"doubleSided":true,
			"name":"Metal Plate",
			"normalTexture":{
				"index":0,
				"texCoord":1
			},
			"pbrMetallicRoughness":{
				"baseColorTexture":{
					"index":1,
					"texCoord":1
				},
				"metallicRoughnessTexture":{
					"index":2,
					"texCoord":1
				}
			}
		}
	],
	"meshes":[
		{
			"extras":{
				"targetNames":[
					"Deform",
					"Twist",
					"Twist_r",
					"Key 4"
				]
			},
			"name":"Cube",
			"primitives":[
				{
					"attributes":{
						"POSITION":0,
						"NORMAL":1,
						"TEXCOORD_0":2,
						"TEXCOORD_1":3
					},
					"indices":4,
					"material":0,
					"targets":[
						{
							"POSITION":5,
							"NORMAL":6
						},
						{
							"POSITION":7,
							"NORMAL":8
						},
						{
							"POSITION":9,
							"NORMAL":10
						},
						{
							"POSITION":11,
							"NORMAL":12
						}
					]
				}
			],
			"weights":[
				0,
				0,
				0,
				0
			]
		}
	],
	"textures":[
		{
			"sampler":0,
			"source":0
		},
		{
			"sampler":0,
			"source":1
		},
		{
			"sampler":0,
			"source":2
		}
	],
	"images":[
		{
			"mimeType":"image/jpeg",
			"name":"Metal049A_1K-JPG_NormalGL",
			"uri":"Metal049A_1K-JPG_NormalGL.jpg"
		},
		{
			"mimeType":"image/jpeg",
			"name":"Metal049A_1K-JPG_Color",
			"uri":"Metal049A_1K-JPG_Color.jpg"
		},
		{
			"mimeType":"image/png",
			"name":"Metal049A_1K-JPG_Metalness-Metal049A_1K-JPG_Roughness",
			"uri":"Metal049A_1K-JPG_Metalness-Metal049A_1K-JPG_Roughness.png"
		}
	],
	"accessors":[
		{
			"bufferView":0,
			"componentType":5126,
			"count":154,
			"max":[
				1,
				1,
				1
			],
			"min":[
				-1,
				-1,
				-1
			],
			"type":"VEC3"
		},
		{
			"bufferView":1,
			"componentType":5126,
			"count":154,
			"type":"VEC3"
		},
		{
			"bufferView":2,
			"componentType":5126,
			"count":154,
			"type":"VEC2"
		},
		{
			"bufferView":3,
			"componentType":5126,
			"count":154,
			"type":"VEC2"
		},
		{
			"bufferView":4,
			"componentType":5123,
			"count":288,
			"type":"SCALAR"
		},
		{
			"componentType":5126,
			"count":154,
			"max":[
				0.7421189546585083,
				0.48646843433380127,
				0.903423547744751
			],
			"min":[
				-1.2238430976867676,
				-0.4808938503265381,
				-1.050687551498413
			],
			"sparse":{
				"count":96,
				"indices":{
					"bufferView":5,
					"componentType":5121
				},
				"values":{
					"bufferView":6
				}
			},
			"type":"VEC3"
		},
		{
			"componentType":5126,
			"count":154,
			"sparse":{
				"count":104,
				"indices":{
					"bufferView":7,
					"componentType":5121
				},
				"values":{
					"bufferView":8
				}
			},
			"type":"VEC3"
		},
		{
			"componentType":5126,
			"count":154,
			"max":[
				1.8535727262496948,
				0,
				1.8535727262496948
			],
			"min":[
				-1.8535727262496948,
				0,
				-1.8535727262496948
			],
			"sparse":{
				"count":78,
				"indices":{
					"bufferView":9,
					"componentType":5121
				},
				"values":{
					"bufferView":10
				}
			},
			"type":"VEC3"
		},
		{
			"componentType":5126,
			"count":154,
			"sparse":{
				"count":40,
				"indices":{
					"bufferView":11,
					"componentType":5121
				},
				"values":{
					"bufferView":12
				}
			},
			"type":"VEC3"
		},
		{
			"componentType":5126,
			"count":154,
			"max":[
				1.9691429138183594,
				0,
				1.9691429138183594
			],
			"min":[
				-1.9691429138183594,
				0,
				-1.9691429138183594
			],
			"sparse":{
				"count":68,
				"indices":{
					"bufferView":13,
					"componentType":5121
				},
				"values":{
					"bufferView":14
				}
			},
			"type":"VEC3"
		},
		{
			"componentType":5126,
			"count":154,
			"sparse":{
				"count":40,
				"indices":{
					"bufferView":15,
					"componentType":5121
				},
				"values":{
					"bufferView":16
				}
			},
			"type":"VEC3"
		},
		{
			"componentType":5126,
			"count":154,
			"max":[
				0,
				1.916208028793335,
				0
			],
			"min":[
				0,
				0,
				0
			],
			"sparse":{
				"count":19,
				"indices":{
					"bufferView":17,
					"componentType":5121
				},
				"values":{
					"bufferView":18
				}
			},
			"type":"VEC3"
		},
		{
			"componentType":5126,
			"count":154,
			"sparse":{
				"count":46,
				"indices":{
					"bufferView":19,
					"componentType":5121
				},
				"values":{
					"bufferView":20
				}
			},
			"type":"VEC3"
		}
	],
	"bufferViews":[
		{
			"buffer":0,
			"byteLength":1848,
			"byteOffset":0,
			"target":34962
		},
		{
			"buffer":0,
			"byteLength":1848,
			"byteOffset":1848,
			"target":34962
		},
		{
			"buffer":0,
			"byteLength":1232,
			"byteOffset":3696,
			"target":34962
		},
		{
			"buffer":0,
			"byteLength":1232,
			"byteOffset":4928,
			"target":34962
		},
		{
			"buffer":0,
			"byteLength":576,
			"byteOffset":6160,
			"target":34963
		},
		{
			"buffer":0,
			"byteLength":96,
			"byteOffset":6736
		},
		{
			"buffer":0,
			"byteLength":1152,
			"byteOffset":6832
		},
		{
			"buffer":0,
			"byteLength":104,
			"byteOffset":7984
		},
		{
			"buffer":0,
			"byteLength":1248,
			"byteOffset":8088
		},
		{
			"buffer":0,
			"byteLength":78,
			"byteOffset":9336
		},
		{
			"buffer":0,
			"byteLength":936,
			"byteOffset":9416
		},
		{
			"buffer":0,
			"byteLength":40,
			"byteOffset":10352
		},
		{
			"buffer":0,
			"byteLength":480,
			"byteOffset":10392
		},
		{
			"buffer":0,
			"byteLength":68,
			"byteOffset":10872
		},
		{
			"buffer":0,
			"byteLength":816,
			"byteOffset":10940
		},
		{
			"buffer":0,
			"byteLength":40,
			"byteOffset":11756
		},
		{
			"buffer":0,
			"byteLength":480,
			"byteOffset":11796
		},
		{
			"buffer":0,
			"byteLength":19,
			"byteOffset":12276
		},
		{
			"buffer":0,
			"byteLength":228,
			"byteOffset":12296
		},
		{
			"buffer":0,
			"byteLength":46,
			"byteOffset":12524
		},
		{
			"buffer":0,
			"byteLength":552,
			"byteOffset":12572
		}
	],
	"samplers":[
		{
			"magFilter":9729,
			"minFilter":9987
		}
	],
	"buffers":[
		{
			"byteLength":13124,
			"uri":"Cube_Blendshape_test.bin"
		}
	]
}
